<svg id="Gruppe_4728" data-name="Gruppe 4728" xmlns="http://www.w3.org/2000/svg" width="66.414" height="66.414" viewBox="0 0 66.414 66.414">
  <circle id="Ellipse_2" data-name="Ellipse 2" cx="33.207" cy="33.207" r="33.207" fill="#00344f"/>
  <circle id="Ellipse_3" data-name="Ellipse 3" cx="5.837" cy="5.837" r="5.837" transform="translate(25.964 8.444)" fill="#fff"/>
  <path id="Pfad_24" data-name="Pfad 24" d="M96.228,27.977,93.595,30.49a1.807,1.807,0,0,0,.316,2.86l3.319,2a1.8,1.8,0,0,0,2.075-.153l.964-.785A1.817,1.817,0,0,0,100.8,32.3l-1.654-3.719a1.8,1.8,0,0,0-2.913-.606Z" transform="translate(-44.026 -13.001)" fill="#21d1c2"/>
  <path id="Pfad_25" data-name="Pfad 25" d="M81.129,96.435l-.079,4.909a1.275,1.275,0,0,0,1.675,1.233l5.146-1.7a1.28,1.28,0,0,0,.284-2.3l-5.062-3.2a1.28,1.28,0,0,0-1.965,1.054Z" transform="translate(-38.356 -45.044)" fill="#1695df"/>
  <path id="Pfad_26" data-name="Pfad 26" d="M102.351,59.89l-2.6,1.859a1.686,1.686,0,0,0-.7,1.58l.074.6a1.691,1.691,0,0,0,1.054,1.349l3.577,1.517a1.7,1.7,0,0,0,2.07-.632l1.391-2.107a1.691,1.691,0,0,0-.406-2.291l-2.492-1.838A1.691,1.691,0,0,0,102.351,59.89Z" transform="translate(-46.872 -28.2)" fill="#f5816b"/>
  <path id="Pfad_27" data-name="Pfad 27" d="M65.963,57.713A15.561,15.561,0,0,1,62.1,55.853a17.662,17.662,0,0,0-4.43-2.2,6.026,6.026,0,0,0-3.545.032A13.919,13.919,0,0,0,51.145,55.7,13.169,13.169,0,0,1,34.1,53.925C30.944,50.6,30.032,46.2,30.659,41.773c.211-1.5.653-2.918.9-4.409a16.235,16.235,0,0,0,.4-5.162,5.178,5.178,0,0,0-.437-1.622,27.739,27.739,0,0,1-1.148-2.634c-.1-.253-.19-.527-.279-.774-.026-.068-.053-.158-.079-.248a10.362,10.362,0,0,1-.369-1.859.432.432,0,0,1,0-.116,13.285,13.285,0,0,1,.711-4.778A10.957,10.957,0,0,1,32.988,16.1a2.4,2.4,0,0,1,.79-.527.927.927,0,0,1,.911.132,1.385,1.385,0,0,1,.211,1.285c-.437,2.665-1.417,5.526.574,7.812a9.608,9.608,0,0,0,2.934,2.044l3.845,2.107c4.772,2.592,10.2,5.215,15.8,3.872a12.643,12.643,0,0,0,2.46-.869l2.755-1.291c1.148-.527,1.169,1.391.917,1.991a4.625,4.625,0,0,1-1.111,1.491,16.245,16.245,0,0,1-6.948,4.019,18.437,18.437,0,0,1-7.712.474c-1.607-.242-3.366-.959-4.946-.179a3.024,3.024,0,0,0-1.58,2.634,9.482,9.482,0,0,0,.616,4.172c.716,1.712,2.523,3.161,4.441,2.381,1.58-.622,3.161-1.254,4.709-1.912a17.43,17.43,0,0,1,2.049-.911,6.405,6.405,0,0,1,2.634-.163c2.681.332,4.214,2.513,5.91,4.367q2.871,3.087,5.594,6.337a3.84,3.84,0,0,1,.622.9,1.243,1.243,0,0,1,0,1.054c-.321.616-1.18.669-1.859.527A3.383,3.383,0,0,1,65.963,57.713Z" transform="translate(-14.024 -7.338)" fill="#fff"/>
  <path id="Pfad_28" data-name="Pfad 28" d="M14.608,44.507l3.2-2.107a1.054,1.054,0,0,1,1.37.142l1.938,1.97a1.054,1.054,0,0,1,.195,1.243l-2.607,5.21a1.085,1.085,0,0,1-1.938,0L14.24,45.919A1.054,1.054,0,0,1,14.608,44.507Z" transform="translate(-6.675 -19.976)" fill="#ffc655"/>
</svg>
